# xmcd
# 
# Track frame offsets:
#     150
#     16337
#     32276
#     48827
#     67599
#     80817
#     98028
#     124488
#     149321
#     169792
# 
# Disc length: 2577
# 
# Revision: 0
# Processed by: cddbd v1.5.2PL0 Copyright (c) Steve Scherf et al.
# Submitted via: fre:ac v1.0.27
# 
DISCID=780a0f0a
DTITLE=Peter Hammill - FROM THE TREES
DYEAR=2017
DGENRE=
TTITLE0=My Unintended
TTITLE1=Reputation
TTITLE2=Charm Alone
TTITLE3=What Lies Ahead
TTITLE4=Anagnorisis
TTITLE5=Torpor
TTITLE6=Milked
TTITLE7=Girl to the North Country
TTITLE8=On Deaf Ears
TTITLE9=The Descent
EXTD=
EXTT0=
EXTT1=
EXTT2=
EXTT3=
EXTT4=
EXTT5=
EXTT6=
EXTT7=
EXTT8=
EXTT9=
PLAYORDER=
